# xmcd
#
# Track frame offsets:
# 150
# 18810
# 31780
# 53898
# 69900
# 83763
# 99510
# 117153
# 133428
# 146473
# 164598
# 178075
# 191048
# 207418
#
# Disc length: 3005 seconds
#
#
# Revision: 2
# Processed by: cddbd v1.5.1PL2 Copyright (c) Steve Scherf et al.
# Submitted via: FreeRIP 2.945 
#
DISCID=c20bbb0e
DTITLE=Vários - Sertanejo - Drogaria São Paulo
DYEAR=1995
DGENRE=Country
TTITLE0=Nuvem de Lágrimas - Chitãozinho and Xororó
TTITLE1=O menino da porteira - Tonico and Tinoco
TTITLE2=Evidências - Chitãozinho and Xororó
TTITLE3=Depois que amanhece (no meio da noite) - João Mineiro e Marciano
TTITLE4=Moreninha Linda - Tonico and Tinoco
TTITLE5=Gente Humilde - Xitãozinho and Xororó
TTITLE6=Cabocla Tereza - Tonico and Tinoco
TTITLE7=Pensando em minha amada - Chitanzinho and Xororó
TTITLE8=Quando o amor domina - João Mineiro and Marciano
TTITLE9=Brincar de ser feliz - Chitãozinho e Xororó
TTITLE10=Meu maior Sucesso - Tiãozinho and Alessandro
TTITLE11=Chora, minha viola - Tonico and Tinoco
TTITLE12=Carta ao meu pai - João Mineiro and Marciano
TTITLE13=Maria Chiquinha - Sandy and Junior
EXTD=
EXTT0=
EXTT1=
EXTT2=
EXTT3=
EXTT4=
EXTT5=
EXTT6=
EXTT7=
EXTT8=
EXTT9=
EXTT10=
EXTT11=
EXTT12=
EXTT13=
PLAYORDER=
